<svg xmlns="http://www.w3.org/2000/svg">
  <symbol viewBox="0 0 24 24" id="ic_account_circle_outline_24px">
    <path
      d="M12 2C6.48 2 2 6.48 2 12s4.48 10 10 10 10-4.48 10-10S17.52 2 12 2zM7.07 18.28c.43-.9 3.05-1.78 4.93-1.78s4.51.88 4.93 1.78C15.57 19.36 13.86 20 12 20s-3.57-.64-4.93-1.72zm11.29-1.45c-1.43-1.74-4.9-2.33-6.36-2.33s-4.93.59-6.36 2.33C4.62 15.49 4 13.82 4 12c0-4.41 3.59-8 8-8s8 3.59 8 8c0 1.82-.62 3.49-1.64 4.83zM12 6c-1.94 0-3.5 1.56-3.5 3.5S10.06 13 12 13s3.5-1.56 3.5-3.5S13.94 6 12 6zm0 5c-.83 0-1.5-.67-1.5-1.5S11.17 8 12 8s1.5.67 1.5 1.5S12.83 11 12 11z"/>
  </symbol>
  <symbol viewBox="0 0 24 24" id="ic_assignment_outline_late_24px">
    <path
      d="M11 15h2v2h-2zm0-8h2v6h-2zm8-4h-4.18C14.4 1.84 13.3 1 12 1c-1.3 0-2.4.84-2.82 2H5c-.14 0-.27.01-.4.04-.39.08-.74.28-1.01.55-.18.18-.33.4-.43.64-.1.23-.16.49-.16.77v14c0 .27.06.54.16.78s.25.45.43.64c.27.27.62.47 1.01.55.13.02.26.03.4.03h14c1.1 0 2-.9 2-2V5c0-1.1-.9-2-2-2zm-7-.25c.41 0 .75.34.75.75s-.34.75-.75.75-.75-.34-.75-.75.34-.75.75-.75zM19 19H5V5h14v14z"/>
  </symbol>
  <symbol viewBox="0 0 24 24" id="ic_assignment_turned_in_outline_24px">
    <path
      d="M18 9l-1.41-1.42L10 14.17l-2.59-2.58L6 13l4 4zm1-6h-4.18C14.4 1.84 13.3 1 12 1c-1.3 0-2.4.84-2.82 2H5c-.14 0-.27.01-.4.04-.39.08-.74.28-1.01.55-.18.18-.33.4-.43.64-.1.23-.16.49-.16.77v14c0 .27.06.54.16.78s.25.45.43.64c.27.27.62.47 1.01.55.13.02.26.03.4.03h14c1.1 0 2-.9 2-2V5c0-1.1-.9-2-2-2zm-7-.25c.41 0 .75.34.75.75s-.34.75-.75.75-.75-.34-.75-.75.34-.75.75-.75zM19 19H5V5h14v14z"/>
  </symbol>
  <symbol viewBox="0 0 24 24" id="ic_book_outline_24px">
    <path
      d="M18 2H6a2 2 0 00-2 2v16c0 1.1.9 2 2 2h12a2 2 0 002-2V4a2 2 0 00-2-2zM9 4h2v5l-1-.75L9 9V4zm9 16H6V4h1v9l3-2.25L13 13V4h5v16z"/>
  </symbol>
  <symbol viewBox="0 0 24 24" id="ic_calendar_today_outline_24px">
    <path
      d="M20 3h-1V1h-2v2H7V1H5v2H4c-1.1 0-2 .9-2 2v16c0 1.1.9 2 2 2h16c1.1 0 2-.9 2-2V5c0-1.1-.9-2-2-2zm0 18H4V10h16v11zm0-13H4V5h16v3z"/>
  </symbol>
  <symbol viewBox="0 0 24 24" id="ic_delete_outline_24px">
    <path d="M6 19c0 1.1.9 2 2 2h8a2 2 0 002-2V7H6v12zM8 9h8v10H8V9zm7.5-5l-1-1h-5l-1 1H5v2h14V4z"/>
  </symbol>
  <symbol viewBox="0 0 24 24" id="ic_delete_forever_outline_24px">
    <path
      d="M14.12 10.47L12 12.59l-2.13-2.12-1.41 1.41L10.59 14l-2.12 2.12 1.41 1.41L12 15.41l2.12 2.12 1.41-1.41L13.41 14l2.12-2.12zM15.5 4l-1-1h-5l-1 1H5v2h14V4zM6 19c0 1.1.9 2 2 2h8a2 2 0 002-2V7H6v12zM8 9h8v10H8V9z"/>
  </symbol>
  <symbol viewBox="0 0 24 24" id="ic_edit_outline_24px">
    <path
      d="M14.06 9.02l.92.92L5.92 19H5v-.92l9.06-9.06M17.66 3a1 1 0 00-.7.29l-1.83 1.83 3.75 3.75 1.83-1.83a1 1 0 000-1.41l-2.34-2.34a.98.98 0 00-.71-.29zm-3.6 3.19L3 17.25V21h3.75L17.81 9.94l-3.75-3.75z"/>
  </symbol>
  <symbol viewBox="0 0 24 24" id="ic_emoji_events_outline_24px">
    <path
      d="M19 5h-2V3H7v2H5a2 2 0 00-2 2v1a5 5 0 004.39 4.94A5 5 0 0011 15.9V19H7v2h10v-2h-4v-3.1a5 5 0 003.61-2.96A5 5 0 0021 8V7a2 2 0 00-2-2zM5 8V7h2v3.82A3.01 3.01 0 015 8zm7 6a3 3 0 01-3-3V5h6v6a3 3 0 01-3 3zm7-6c0 1.3-.84 2.4-2 2.82V7h2v1z"/>
  </symbol>
  <symbol viewBox="0 0 24 24" id="ic_group_outline_24px">
    <path
      d="M12 0C10.067 0 8.5 1.567 8.5 3.5C8.5 5.433 10.067 7 12 7C13.933 7 15.5 5.433 15.5 3.5C15.5 1.567 13.933 0 12 0ZM12 2C12.827 2 13.5 2.673 13.5 3.5C13.5 4.327 12.827 5 12 5C11.173 5 10.5 4.327 10.5 3.5C10.5 2.673 11.173 2 12 2ZM4.5 3C3.119 3 2 4.119 2 5.5C2 6.881 3.119 8 4.5 8C5.881 8 7 6.881 7 5.5C7 4.119 5.881 3 4.5 3ZM19.5 3C18.119 3 17 4.119 17 5.5C17 6.881 18.119 8 19.5 8C20.881 8 22 6.881 22 5.5C22 4.119 20.881 3 19.5 3ZM4.5 4.72266C4.929 4.72266 5.27734 5.071 5.27734 5.5C5.27734 5.929 4.929 6.27734 4.5 6.27734C4.071 6.27734 3.72266 5.929 3.72266 5.5C3.72266 5.071 4.071 4.72266 4.5 4.72266ZM19.5 4.72266C19.929 4.72266 20.2773 5.071 20.2773 5.5C20.2773 5.929 19.929 6.27734 19.5 6.27734C19.071 6.27734 18.7227 5.929 18.7227 5.5C18.7227 5.071 19.071 4.72266 19.5 4.72266ZM12 9C10.5253 9 8.12583 9.46826 6.55469 10.3984C5.91354 10.1553 5.21125 10 4.5 10C2.263 10 0 11.3976 0 12.9316V16H4.5H5H6H19H19.5H24V12.9316C24 11.3976 21.737 10 19.5 10C18.7887 10 18.0865 10.1553 17.4453 10.3984C15.8742 9.46826 13.4747 9 12 9ZM12 11C14.134 11 16.622 11.9614 17 12.5664V14H7V12.5664C7.378 11.9614 9.866 11 12 11H12ZM4.5 12C4.69795 12 4.8767 12.034 5.05859 12.0625C5.02144 12.2034 5 12.3494 5 12.5V14H4.5H2V13.0098C2.184 12.6898 3.198 12 4.5 12H4.5ZM19.5 12C20.802 12 21.816 12.6898 22 13.0098V14H19.5H19V12.5C19 12.3494 18.9786 12.2034 18.9414 12.0625C19.1233 12.034 19.3021 12 19.5 12H19.5Z"/>
  </symbol>
  <symbol viewBox="0 0 24 24" id="ic_insert_drive_file_outline_24px">
    <path d="M14 2H6a2 2 0 00-2 2v16c0 1.1.9 2 2 2h12a2 2 0 002-2V8l-6-6zM6 20V4h7v5h5v11H6z"/>
  </symbol>
  <symbol viewBox="0 0 24 24" id="ic_location_on_outline_24px">
    <path
      d="M12 2a7 7 0 00-7 7c0 5.25 7 13 7 13s7-7.75 7-13a7 7 0 00-7-7zM7 9a5 5 0 0110 0c0 2.88-2.88 7.19-5 9.88C9.92 16.21 7 11.85 7 9z"/>
    <circle cx="12" cy="9" r="2.5"/>
  </symbol>
  <symbol viewBox="0 0 24 24" id="ic_message_outline_24px">
    <path
      d="M4 4h16v12H5.17L4 17.17V4m0-2c-1.1 0-1.99.9-1.99 2L2 22l4-4h14c1.1 0 2-.9 2-2V4c0-1.1-.9-2-2-2H4zm2 10h12v2H6v-2zm0-3h12v2H6V9zm0-3h12v2H6V6z"/>
  </symbol>
  <symbol viewBox="0 0 24 24" id="ic_vert_24px">
    <path d="M12 8c1.1 0 2-.9 2-2s-.9-2-2-2-2 .9-2 2 .9 2 2 2zm0 2c-1.1 0-2 .9-2 2s.9 2 2 2 2-.9 2-2-.9-2-2-2zm0 6c-1.1 0-2 .9-2 2s.9 2 2 2 2-.9 2-2-.9-2-2-2z"/>
  </symbol>
  <symbol viewBox="0 0 24 24" id="ic_notifications_outline_24px">
    <path
      d="M12 22c1.1 0 2-.9 2-2h-4c0 1.1.9 2 2 2zm6-6v-5c0-3.07-1.63-5.64-4.5-6.32V4c0-.83-.67-1.5-1.5-1.5s-1.5.67-1.5 1.5v.68C7.64 5.36 6 7.92 6 11v5l-2 2v1h16v-1l-2-2zm-2 1H8v-6c0-2.48 1.51-4.5 4-4.5s4 2.02 4 4.5v6z"/>
  </symbol>
  <symbol viewBox="0 0 24 24" id="ic_phone_in_talk_outline_24px">
    <path
      d="M15 12h2a5 5 0 00-5-5v2a3 3 0 013 3zm4 0h2a9 9 0 00-9-9v2a7 7 0 017 7zm1 3.5c-1.25 0-2.45-.2-3.57-.57a1.02 1.02 0 00-1.02.24l-2.2 2.2a15.05 15.05 0 01-6.59-6.59l2.2-2.21a.96.96 0 00.25-1A11.36 11.36 0 018.5 4a1 1 0 00-1-1H4a1 1 0 00-1 1 17 17 0 0017 17 1 1 0 001-1v-3.5a1 1 0 00-1-1zM5.03 5h1.5c.07.88.22 1.75.45 2.58l-1.2 1.21c-.4-1.21-.66-2.47-.75-3.79zM19 18.97a14.9 14.9 0 01-3.8-.76l1.2-1.2c.85.24 1.72.39 2.6.45v1.51z"/>
  </symbol>
  <symbol viewBox="0 0 24 24" id="ic_report_problem_outline_24px">
    <path d="M12 6l7.5 13h-15L12 6m0-4L1 21h22L12 2zm1 14h-2v2h2v-2zm0-6h-2v4h2v-4z"/>
  </symbol>
  <symbol viewBox="0 0 24 24" id="ic_school_outline_24px">
    <path
      d="M12 3L1 9l4 2.18v6L12 21l7-3.82v-6l2-1.09V17h2V9L12 3zm6.82 6L12 12.72 5.18 9 12 5.28 18.82 9zM17 15.99l-5 2.73-5-2.73v-3.72L12 15l5-2.73v3.72z"/>
  </symbol>
  <symbol viewBox="0 0 24 24" id="ic_send_outline_24px">
    <path
      d="M4.01 6.03l7.51 3.22-7.52-1 .01-2.22m7.5 8.72L4 17.97v-2.22l7.51-1M2.01 3L2 10l15 2-15 2 .01 7L23 12 2.01 3z"/>
  </symbol>
  <symbol viewBox="0 0 24 24" id="ic_videocam_outline_24px">
    <path
      d="M15 8v8H5V8h10m1-2H4c-.55 0-1 .45-1 1v10c0 .55.45 1 1 1h12c.55 0 1-.45 1-1v-3.5l4 4v-11l-4 4V7c0-.55-.45-1-1-1z"/>
  </symbol>
  <symbol viewBox="0 0 24 24" id="ic_settings_outline_24px">
    <path
      d="M19.4 13a7.8 7.8 0 000-2l2.1-1.6c.2-.2.3-.5.2-.7l-2-3.4A.5.5 0 0019 5l-2.4 1-1.7-1-.4-2.6c0-.2-.3-.4-.5-.4h-4c-.3 0-.5.2-.5.4l-.4 2.7c-.6.2-1.1.6-1.7 1L5 5h-.1c-.2 0-.4 0-.5.2l-2 3.4c0 .3 0 .5.2.7l2 1.6a8 8 0 000 2l-2 1.6c-.2.2-.3.5-.2.7l2 3.4a.5.5 0 00.7.3l2.4-1 1.7 1 .4 2.6c0 .2.3.4.5.4h4c.3 0 .5-.2.5-.4l.4-2.7c.6-.2 1.1-.6 1.7-1l2.5 1h.1c.2 0 .4 0 .5-.2l2-3.4c0-.2 0-.5-.2-.7l-2-1.6zm-2-1.7a5.3 5.3 0 010 1.4V14l.8.7 1 .8-.6 1.2-1.3-.5-1-.4-1 .7-1.2.7-1 .4-.2 1.1-.2 1.4h-1.4l-.2-1.4-.1-1-1.1-.5-1.2-.7-1-.7-1 .4-1.3.5-.7-1.2 1.1-.8.9-.7-.1-1.2a8 8 0 010-1.4V10l-.8-.7-1-.8.6-1.2 1.3.5 1 .4 1-.7L9.8 7l1-.4.2-1.1.2-1.4h1.4l.2 1.4.1 1 1.1.5 1.2.7 1 .7 1-.4 1.3-.5.7 1.2-1.1.8-.9.7.1 1.2zM12 8a4 4 0 100 8 4 4 0 000-8zm0 6c-1.1 0-2-.9-2-2s.9-2 2-2 2 .9 2 2-.9 2-2 2z"/>
  </symbol>
  <symbol viewBox="0 0 24 24" id="ic_remove_circle_outline_24px">
    <path
      d="M7 12c0 .55.45 1 1 1h8c.55 0 1-.45 1-1s-.45-1-1-1H8c-.55 0-1 .45-1 1zm5-10C6.48 2 2 6.48 2 12s4.48 10 10 10 10-4.48 10-10S17.52 2 12 2zm0 18c-4.41 0-8-3.59-8-8s3.59-8 8-8 8 3.59 8 8-3.59 8-8 8z"/>
  </symbol>
  <symbol viewBox="0 0 24 24" id="ic_edit_calendar_24px">
    <path d="M19 3H18V1H16V3H8V1H6V3H5C4.46957 3 3.96086 3.21071 3.58579 3.58579C3.21071 3.96086 3 4.46957 3 5V19C3 19.5304 3.21071 20.0391 3.58579 20.4142C3.96086 20.7893 4.46957 21 5 21H10V19H5V8H19V9H21V5C21 4.46957 20.7893 3.96086 20.4142 3.58579C20.0391 3.21071 19.5304 3 19 3ZM21.7 13.35L20.7 14.35L18.65 12.35L19.65 11.35C19.85 11.14 20.19 11.13 20.42 11.35L21.7 12.63C21.89 12.83 21.89 13.15 21.7 13.35ZM12 18.94L18.07 12.88L20.12 14.88L14.06 21H12V18.94Z"/>
  </symbol>
  <symbol viewBox="0 0 24 24" id="ic_attach_file_24px">
    <path d="M16.5 6v11.5c0 2.21-1.79 4-4 4s-4-1.79-4-4V5c0-1.38 1.12-2.5 2.5-2.5s2.5 1.12 2.5 2.5v10.5c0 .55-.45 1-1 1s-1-.45-1-1V6H10v9.5c0 1.38 1.12 2.5 2.5 2.5s2.5-1.12 2.5-2.5V5c0-2.21-1.79-4-4-4S7 2.79 7 5v12.5c0 3.04 2.46 5.5 5.5 5.5s5.5-2.46 5.5-5.5V6h-1.5z"/>
  </symbol>
  <symbol viewBox="0 0 24 24" id="save_alt_black_24px">
    <path d="M0 0h24v24H0V0z" fill="none"/>
    <path d="M19 12v7H5v-7H3v7c0 1.1.9 2 2 2h14c1.1 0 2-.9 2-2v-7h-2zm-6 .67l2.59-2.58L17 11.5l-5 5-5-5 1.41-1.41L11 12.67V3h2v9.67z"/>
  </symbol>
</svg>
